<svg width="44" height="45" viewBox="0 0 44 45" fill="none" xmlns="http://www.w3.org/2000/svg">
<path fill-rule="evenodd" clip-rule="evenodd" d="M22 44.5C34.1503 44.5 44 34.6503 44 22.5C44 10.3497 34.1503 0.5 22 0.5C9.84971 0.5 0 10.3497 0 22.5C0 34.6503 9.84971 44.5 22 44.5ZM28.8632 10.7485C29.1973 9.56186 28.0457 8.86015 26.994 9.60944L12.3124 20.0685C11.1718 20.8811 11.3512 22.5 12.5819 22.5H16.448V22.4701H23.9828L17.8433 24.6363L15.1368 34.2515C14.8027 35.4382 15.9542 36.1399 17.006 35.3906L31.6876 24.9315C32.8282 24.119 32.6487 22.5 31.4181 22.5H25.5553L28.8632 10.7485Z" fill="#155EEF"/>
</svg>
