<svg width="45" height="45" viewBox="0 0 45 45" fill="none" xmlns="http://www.w3.org/2000/svg">
<path d="M36.7072 9.66308C36.2749 9.23086 35.8427 8.79864 35.4105 8.36642C34.1138 6.98331 32.7307 5.60021 31.0018 4.73577C29.0136 3.69844 26.8525 3.95777 24.6914 3.95777C21.4066 3.95777 13.1944 3.95777 8.35352 3.95777L11.6384 8.36642C17.603 8.36642 26.939 8.36642 31.2612 8.36642C33.0765 8.36642 34.6325 8.71219 36.1021 9.66308C36.3614 9.74952 36.6207 9.74952 36.7072 9.66308Z" fill="#66C61C"/>
<path d="M40.3371 16.7517C39.9049 16.3195 39.4727 15.8873 39.0405 15.455C37.7438 14.0719 36.3607 12.6888 34.6318 11.8244C32.6436 10.7871 30.4825 11.0464 28.3214 11.0464C25.4688 11.0464 18.6397 11.0464 13.7988 11.0464L17.0837 15.455C22.9619 15.455 31.0012 15.455 34.9776 15.455C36.7929 15.455 38.3489 15.8008 39.8185 16.7517C39.9914 16.8381 40.1643 16.8381 40.3371 16.7517Z" fill="#4CA30D"/>
<path d="M44.4004 23.667C43.9681 23.2348 43.5359 22.8025 43.1037 22.3703C41.807 20.9872 40.4239 19.6041 38.6951 18.7397C36.7068 17.7023 34.5457 17.9617 32.3846 17.9617C29.7049 17.9617 23.8267 17.9617 19.0723 17.9617L22.3571 22.3703C28.0624 22.3703 35.3237 22.3703 38.9544 22.3703C40.7697 22.3703 42.3257 22.7161 43.7952 23.667C44.0546 23.7534 44.2275 23.8399 44.4004 23.667Z" fill="#3B7C0F"/>
<path d="M8.00781 35.3368C8.44003 35.769 8.87225 36.2012 9.30447 36.6335C10.6011 38.0166 11.9842 39.3997 13.7131 40.2641C15.7013 41.3014 17.8624 41.0421 20.0235 41.0421H36.3615L33.0766 36.6335C27.1119 36.6335 17.776 36.6335 13.4538 36.6335C11.6385 36.6335 10.0825 36.2877 8.61292 35.3368C8.35359 35.2504 8.1807 35.2504 8.00781 35.3368Z" fill="#66C61C"/>
<path d="M4.37695 28.2487C4.80917 28.6809 5.24139 29.1131 5.67361 29.5453C6.97027 30.9284 8.35337 32.3116 10.0823 33.176C12.0705 34.2133 14.2316 33.954 16.3927 33.954H30.9153L27.6304 29.5453C21.7522 29.5453 13.7129 29.5453 9.73648 29.5453C7.92116 29.5453 6.36516 29.1996 4.89561 28.2487C4.72272 28.1622 4.54984 28.1622 4.37695 28.2487Z" fill="#4CA30D"/>
<path d="M0.400391 21.2465C0.832611 21.6787 1.26483 22.1109 1.69705 22.5431C2.99371 23.9262 4.37682 25.3094 6.1057 26.1738C8.09391 27.2111 10.255 26.9518 12.4161 26.9518H25.7285L22.4436 22.5431C16.7383 22.5431 9.47702 22.5431 5.84637 22.5431C4.03104 22.5431 2.47504 22.1974 1.0055 21.2465C0.746164 21.16 0.573279 21.16 0.400391 21.2465Z" fill="#3B7C0F"/>
</svg>
