<svg width="39" height="45" viewBox="0 0 39 45" fill="none" xmlns="http://www.w3.org/2000/svg">
<path fill-rule="evenodd" clip-rule="evenodd" d="M19.9657 1.94802C19.4606 1.84415 18.9398 1.84415 18.4347 1.94802C17.8509 2.06809 17.3291 2.36035 16.9143 2.5927L16.8012 2.65587L2.74173 10.4667C2.70286 10.4883 2.6628 10.5103 2.62176 10.533C2.18263 10.7748 1.63048 11.0789 1.20646 11.5391C0.83987 11.9369 0.562441 12.4084 0.392731 12.922C0.196435 13.5161 0.198732 14.1465 0.200558 14.6478C0.200729 14.6947 0.200896 14.7404 0.200896 14.7849V30.2068C0.200896 30.2513 0.200729 30.297 0.200558 30.3438C0.198732 30.8452 0.196435 31.4755 0.392731 32.0697C0.562443 32.5833 0.839872 33.0548 1.20646 33.4526C1.63048 33.9127 2.18263 34.2168 2.62176 34.4587C2.66281 34.4813 2.70286 34.5034 2.74173 34.525L16.8012 42.3358L16.9143 42.399C17.3291 42.6313 17.8509 42.9236 18.4347 43.0436C18.9398 43.1475 19.4606 43.1475 19.9657 43.0436C20.5495 42.9236 21.0713 42.6313 21.4861 42.399L21.5992 42.3358L35.6587 34.525C35.6758 34.5154 35.6933 34.5058 35.7109 34.4961C35.7331 34.4838 35.7557 34.4713 35.7786 34.4587C36.2178 34.2169 36.7699 33.9127 37.1939 33.4526C37.5605 33.0548 37.838 32.5833 38.0077 32.0697C38.204 31.4755 38.2017 30.8452 38.1998 30.3438C38.1997 30.297 38.1995 30.2513 38.1995 30.2068V14.7849C38.1995 14.7404 38.1997 14.6947 38.1998 14.6478C38.2017 14.1465 38.204 13.5161 38.0077 12.922C37.838 12.4084 37.5605 11.9369 37.1939 11.5391C36.7699 11.0789 36.2178 10.7748 35.7786 10.5329L35.7771 10.5321C35.7366 10.5098 35.697 10.488 35.6587 10.4667L21.5992 2.65586L21.4861 2.59269C21.0713 2.36035 20.5495 2.06809 19.9657 1.94802ZM18.6466 5.97754C18.9345 5.81759 19.0815 5.73676 19.1911 5.68388L19.2002 5.67953L19.2093 5.68388C19.3189 5.73676 19.4659 5.81758 19.7538 5.97754L32.3873 12.9961L19.2001 20.3223L6.01304 12.9962L18.6466 5.97754ZM4.00076 16.2251L17.3002 23.6137L17.3003 38.2662L4.5871 31.2033C4.2832 31.0345 4.12804 30.9474 4.01919 30.878L4.00999 30.8721L4.00931 30.8612C4.00155 30.7324 4.00076 30.5545 4.00076 30.2068V16.2251Z" fill="#101828"/>
</svg>
