<svg width="19" height="19" viewBox="0 0 19 19" fill="none" xmlns="http://www.w3.org/2000/svg">
<path d="M4.57896 8.85741C4.52717 8.5236 4.50029 8.18163 4.50029 7.83342C4.50029 4.15152 7.5047 1.16675 11.2108 1.16675C14.9169 1.16675 17.9213 4.15152 17.9213 7.83342C17.9213 8.66514 17.768 9.46129 17.488 10.1955C17.4298 10.348 17.4007 10.4242 17.3875 10.4838C17.3744 10.5427 17.3694 10.5842 17.3679 10.6446C17.3665 10.7056 17.3748 10.7727 17.3913 10.907L17.7268 13.6322C17.7631 13.9272 17.7813 14.0747 17.7322 14.1819C17.6892 14.2759 17.6128 14.3505 17.5179 14.3913C17.4096 14.4379 17.2625 14.4164 16.9684 14.3733L14.314 13.9842C14.1755 13.9639 14.1061 13.9537 14.043 13.9541C13.9806 13.9544 13.9374 13.959 13.8763 13.9719C13.8145 13.9849 13.7356 14.0144 13.5778 14.0735C12.8417 14.3492 12.044 14.5001 11.2108 14.5001C10.8623 14.5001 10.52 14.4737 10.1859 14.4228M5.85997 17.8334C8.33072 17.8334 10.3337 15.7814 10.3337 13.2501C10.3337 10.7188 8.33072 8.66675 5.85997 8.66675C3.38923 8.66675 1.38629 10.7188 1.38629 13.2501C1.38629 13.7589 1.46722 14.2484 1.61662 14.7057C1.67977 14.899 1.71134 14.9957 1.72171 15.0617C1.73252 15.1306 1.73442 15.1694 1.73039 15.239C1.72653 15.3057 1.70984 15.3812 1.67645 15.532L1.16699 17.8334L3.66266 17.4926C3.79888 17.474 3.86699 17.4647 3.92647 17.4651C3.98909 17.4655 4.02233 17.4689 4.08375 17.4811C4.14208 17.4928 4.22879 17.5234 4.40222 17.5846C4.85915 17.7458 5.34958 17.8334 5.85997 17.8334Z" stroke="#344054" stroke-width="1.66667" stroke-linecap="round" stroke-linejoin="round"/>
</svg>
