<svg width="44" height="45" viewBox="0 0 44 45" fill="none" xmlns="http://www.w3.org/2000/svg">
<g clip-path="url(#clip0_1084_472)">
<path d="M27.2694 2.62169L23.0486 1.49072L19.4917 14.7654L16.2804 2.78093L12.0595 3.9119L15.5291 16.8602L6.88724 8.21841L3.79738 11.3083L13.2764 20.7874L1.47179 17.6243L0.34082 21.8451L13.2388 25.3011C13.0912 24.6642 13.0131 24.0006 13.0131 23.3187C13.0131 18.492 16.9258 14.5792 21.7525 14.5792C26.5792 14.5792 30.492 18.492 30.492 23.3187C30.492 23.9962 30.4148 24.6557 30.269 25.2889L41.9909 28.4297L43.1218 24.209L30.1725 20.7392L41.9779 17.5759L40.8469 13.3551L27.8981 16.8247L36.54 8.18293L33.4501 5.09307L24.1026 14.4406L27.2694 2.62169Z" fill="#FF4405"/>
<path d="M30.2567 25.338C29.8948 26.868 29.1308 28.2424 28.0825 29.3435L36.5745 37.8357L39.6644 34.7458L30.2567 25.338Z" fill="#FF4405"/>
<path d="M27.9968 29.4323C26.9359 30.5159 25.5951 31.3245 24.0916 31.7413L27.1817 43.2735L31.4025 42.1425L27.9968 29.4323Z" fill="#FF4405"/>
<path d="M23.934 31.7835C23.2364 31.9628 22.5053 32.0581 21.7518 32.0581C20.9446 32.0581 20.1629 31.9486 19.4208 31.7437L16.3279 43.2866L20.5487 44.4175L23.934 31.7835Z" fill="#FF4405"/>
<path d="M19.2715 31.7012C17.791 31.2638 16.4741 30.4448 15.4348 29.3581L6.92192 37.8711L10.0118 40.9609L19.2715 31.7012Z" fill="#FF4405"/>
<path d="M15.3647 29.2829C14.3432 28.1893 13.5992 26.8333 13.2451 25.327L1.48486 28.4781L2.61582 32.6989L15.3647 29.2829Z" fill="#FF4405"/>
</g>
<defs>
<clipPath id="clip0_1084_472">
<rect width="44" height="44" fill="white" transform="translate(0 0.5)"/>
</clipPath>
</defs>
</svg>
