<svg width="18" height="16" viewBox="0 0 18 16" fill="none" xmlns="http://www.w3.org/2000/svg">
<path d="M16.9999 8.08333C16.9999 11.9953 13.8285 15.1667 9.91652 15.1667C9.0192 15.1667 8.16086 14.9998 7.37081 14.6954C7.22637 14.6398 7.15415 14.612 7.09671 14.5987C7.04022 14.5857 6.99933 14.5803 6.9414 14.5781C6.8825 14.5758 6.81789 14.5825 6.68865 14.5958L2.42113 15.037C2.01427 15.079 1.81083 15.1001 1.69083 15.0269C1.58631 14.9631 1.51512 14.8566 1.49617 14.7356C1.47441 14.5968 1.57162 14.4168 1.76605 14.057L3.12909 11.534C3.24135 11.3262 3.29747 11.2223 3.32289 11.1225C3.348 11.0238 3.35407 10.9527 3.34604 10.8512C3.33791 10.7484 3.29283 10.6147 3.20266 10.3472C2.96306 9.63632 2.83318 8.875 2.83318 8.08333C2.83318 4.17132 6.0045 1 9.91652 1C13.8285 1 16.9999 4.17132 16.9999 8.08333Z" stroke="#344054" stroke-width="1.66667" stroke-linecap="round" stroke-linejoin="round"/>
<path fill-rule="evenodd" clip-rule="evenodd" d="M9.91395 5.95771C9.16419 5.092 7.91392 4.85913 6.97453 5.65186C6.03513 6.44459 5.90288 7.76999 6.64059 8.70756C7.09763 9.28841 8.24476 10.3493 9.05148 11.0725C9.34781 11.3381 9.49597 11.4709 9.67379 11.5244C9.82633 11.5703 10.0016 11.5703 10.1541 11.5244C10.3319 11.4709 10.4801 11.3381 10.7764 11.0725C11.5831 10.3493 12.7303 9.28841 13.1873 8.70756C13.925 7.76999 13.8089 6.43625 12.8534 5.65186C11.8978 4.86747 10.6637 5.092 9.91395 5.95771Z" stroke="#344054" stroke-width="1.66667" stroke-linecap="round" stroke-linejoin="round"/>
</svg>
