<svg width="19" height="19" viewBox="0 0 19 19" fill="none" xmlns="http://www.w3.org/2000/svg">
<path d="M9.50033 17.8334C14.1027 17.8334 17.8337 14.1025 17.8337 9.50008C17.8337 4.89771 14.1027 1.16675 9.50033 1.16675C4.89795 1.16675 1.16699 4.89771 1.16699 9.50008C1.16699 14.1025 4.89795 17.8334 9.50033 17.8334Z" stroke="#344054" stroke-width="1.66667" stroke-linecap="round" stroke-linejoin="round"/>
<path d="M7.41699 6.97119C7.41699 6.57345 7.41699 6.37459 7.50011 6.26356C7.57254 6.16681 7.68342 6.10628 7.80397 6.09767C7.94231 6.08779 8.1096 6.19533 8.44416 6.41041L12.378 8.9393C12.6683 9.12593 12.8135 9.21925 12.8636 9.33791C12.9074 9.44159 12.9074 9.55858 12.8636 9.66226C12.8135 9.78091 12.6683 9.87423 12.378 10.0609L8.44416 12.5898C8.1096 12.8048 7.94231 12.9124 7.80397 12.9025C7.68342 12.8939 7.57254 12.8334 7.50011 12.7366C7.41699 12.6256 7.41699 12.4267 7.41699 12.029V6.97119Z" stroke="#344054" stroke-width="1.66667" stroke-linecap="round" stroke-linejoin="round"/>
</svg>
