<svg width="18" height="18" viewBox="0 0 18 18" fill="none" xmlns="http://www.w3.org/2000/svg">
<path d="M7.66667 1.99984H5C3.59987 1.99984 2.8998 1.99984 2.36502 2.27232C1.89462 2.512 1.51217 2.89446 1.27248 3.36486C1 3.89964 1 4.59971 1 5.99984V12.9998C1 14.4 1 15.1 1.27248 15.6348C1.51217 16.1052 1.89462 16.4877 2.36502 16.7274C2.8998 16.9998 3.59987 16.9998 5 16.9998H12C13.4001 16.9998 14.1002 16.9998 14.635 16.7274C15.1054 16.4877 15.4878 16.1052 15.7275 15.6348C16 15.1 16 14.4 16 12.9998V10.3332M8.5 6.1665H11.8333V9.49984M11.4167 2.4165V1.1665M14.6995 3.30039L15.5833 2.4165M15.5919 6.58317H16.8419M1 10.6224C1.54328 10.7063 2.09989 10.7498 2.66667 10.7498C6.32197 10.7498 9.55444 8.9395 11.5164 6.1665" stroke="#344054" stroke-width="1.66667" stroke-linecap="round" stroke-linejoin="round"/>
</svg>
