<svg width="18" height="16" viewBox="0 0 18 16" fill="none" xmlns="http://www.w3.org/2000/svg">
<path d="M6.99985 10.1667C6.99985 10.1667 8.0936 11.4167 9.91652 11.4167C11.7394 11.4167 12.8332 10.1667 12.8332 10.1667M12.2082 6H12.2165M7.62485 6H7.63318M9.91652 15.1667C13.8285 15.1667 16.9999 11.9953 16.9999 8.08333C16.9999 4.17132 13.8285 1 9.91652 1C6.0045 1 2.83318 4.17132 2.83318 8.08333C2.83318 8.875 2.96306 9.63632 3.20266 10.3472C3.29283 10.6147 3.33791 10.7484 3.34604 10.8512C3.35407 10.9527 3.348 11.0238 3.32289 11.1225C3.29747 11.2223 3.24135 11.3262 3.12909 11.534L1.76605 14.057C1.57162 14.4168 1.47441 14.5968 1.49617 14.7356C1.51512 14.8566 1.58631 14.9631 1.69083 15.0269C1.81083 15.1001 2.01427 15.079 2.42113 15.037L6.68865 14.5958C6.81789 14.5825 6.8825 14.5758 6.9414 14.5781C6.99933 14.5803 7.04022 14.5857 7.09671 14.5987C7.15415 14.612 7.22637 14.6398 7.37081 14.6954C8.16086 14.9998 9.0192 15.1667 9.91652 15.1667ZM12.6249 6C12.6249 6.23012 12.4383 6.41667 12.2082 6.41667C11.9781 6.41667 11.7915 6.23012 11.7915 6C11.7915 5.76988 11.9781 5.58333 12.2082 5.58333C12.4383 5.58333 12.6249 5.76988 12.6249 6ZM8.04152 6C8.04152 6.23012 7.85497 6.41667 7.62485 6.41667C7.39473 6.41667 7.20818 6.23012 7.20818 6C7.20818 5.76988 7.39473 5.58333 7.62485 5.58333C7.85497 5.58333 8.04152 5.76988 8.04152 6Z" stroke="#344054" stroke-width="1.66667" stroke-linecap="round" stroke-linejoin="round"/>
</svg>
