<svg width="45" height="45" viewBox="0 0 45 45" fill="none" xmlns="http://www.w3.org/2000/svg">
<circle cx="22.5996" cy="22.75" r="20.5" stroke="#6927DA" stroke-width="3"/>
<path d="M30.7316 30.8817C26.5922 35.0211 21.9027 37.7233 17.7263 38.7972C13.5123 39.8808 10.1156 39.2571 8.10422 37.2456C6.09281 35.2342 5.46902 31.8376 6.55265 27.6235C7.62657 23.4472 10.3288 18.7576 14.4682 14.6182C18.6076 10.4788 23.2971 7.77662 27.4735 6.7027C31.6876 5.61907 35.0842 6.24286 37.0956 8.25427C39.107 10.2657 39.7308 13.6623 38.6472 17.8764C37.5732 22.0528 34.871 26.7423 30.7316 30.8817Z" stroke="#6927DA" stroke-width="3"/>
<path d="M30.7311 14.6182C34.8704 18.7576 37.5727 23.4471 38.6466 27.6235C39.7302 31.8376 39.1064 35.2342 37.095 37.2456C35.0836 39.257 31.687 39.8808 27.4729 38.7972C23.2965 37.7233 18.607 35.0211 14.4676 30.8817C10.3282 26.7423 7.62599 22.0528 6.55206 17.8764C5.46844 13.6623 6.09223 10.2657 8.10363 8.25426C10.115 6.24285 13.5117 5.61906 17.7258 6.70269C21.9021 7.77661 26.5917 10.4788 30.7311 14.6182Z" stroke="#6927DA" stroke-width="3"/>
</svg>
