<svg width="17" height="17" viewBox="0 0 17 17" fill="none" xmlns="http://www.w3.org/2000/svg">
<path d="M6 6V3.5C6 2.11929 4.88071 1 3.5 1C2.11929 1 1 2.11929 1 3.5C1 4.88071 2.11929 6 3.5 6H6ZM6 6V11M6 6H11M6 11V13.5C6 14.8807 4.88071 16 3.5 16C2.11929 16 1 14.8807 1 13.5C1 12.1193 2.11929 11 3.5 11H6ZM6 11H11M11 11H13.5C14.8807 11 16 12.1193 16 13.5C16 14.8807 14.8807 16 13.5 16C12.1193 16 11 14.8807 11 13.5V11ZM11 11V6M11 6V3.5C11 2.11929 12.1193 1 13.5 1C14.8807 1 16 2.11929 16 3.5C16 4.88071 14.8807 6 13.5 6H11Z" stroke="#344054" stroke-width="1.66667" stroke-linecap="round" stroke-linejoin="round"/>
</svg>
